<svg width="264" height="21" viewBox="0 0 264 21" fill="none" xmlns="http://www.w3.org/2000/svg">
<path d="M10.6549 20.52C8.92152 20.52 7.41352 20.2253 6.13085 19.636C4.84819 19.0293 3.78219 18.2407 2.93285 17.27C2.08352 16.282 1.45085 15.216 1.03485 14.072C0.618852 12.928 0.410852 11.8187 0.410852 10.744V10.172C0.410852 8.976 0.627518 7.806 1.06085 6.662C1.49419 5.50067 2.14419 4.452 3.01085 3.516C3.87752 2.58 4.94352 1.83467 6.20885 1.28C7.49152 0.725332 8.97352 0.447999 10.6549 0.447999C12.3189 0.447999 13.7835 0.725332 15.0489 1.28C16.3315 1.83467 17.4062 2.58 18.2729 3.516C19.1395 4.452 19.7895 5.50067 20.2229 6.662C20.6735 7.806 20.8989 8.976 20.8989 10.172V10.744C20.8989 11.8187 20.6822 12.928 20.2489 14.072C19.8329 15.216 19.2002 16.282 18.3509 17.27C17.5015 18.2407 16.4355 19.0293 15.1529 19.636C13.8702 20.2253 12.3709 20.52 10.6549 20.52ZM10.6549 15.996C11.4869 15.996 12.2322 15.8573 12.8909 15.58C13.5495 15.3027 14.1129 14.9127 14.5809 14.41C15.0489 13.9073 15.4042 13.3267 15.6469 12.668C15.8895 11.992 16.0109 11.264 16.0109 10.484C16.0109 9.652 15.8809 8.898 15.6209 8.222C15.3782 7.546 15.0229 6.96533 14.5549 6.48C14.0869 5.99467 13.5235 5.622 12.8649 5.362C12.2062 5.102 11.4695 4.972 10.6549 4.972C9.82285 4.972 9.07752 5.102 8.41885 5.362C7.76019 5.622 7.19685 5.99467 6.72885 6.48C6.26085 6.96533 5.90552 7.546 5.66285 8.222C5.42019 8.898 5.29885 9.652 5.29885 10.484C5.29885 11.264 5.42019 11.992 5.66285 12.668C5.90552 13.3267 6.26085 13.9073 6.72885 14.41C7.19685 14.9127 7.76019 15.3027 8.41885 15.58C9.07752 15.8573 9.82285 15.996 10.6549 15.996ZM23.8176 20V1.02H30.5256L34.4256 11.03H34.9456L38.8196 1.02H45.6576V20H40.8736V3.802L41.6276 3.854L36.7396 16.178H32.3456L27.4316 3.854L28.2376 3.802V20H23.8176ZM47.7969 20L53.8809 1.02H61.6289L67.9209 20H62.9289L58.0409 4.4L59.4189 4.92H55.9869L57.3909 4.4L52.6329 20H47.7969ZM52.7629 15.606L54.2189 11.654H61.4209L62.8769 15.606H52.7629ZM70.0539 20V0.863998H74.8899V20H70.0539ZM81.4939 20L76.1639 11.94H81.4159L87.0579 20H81.4939ZM73.6679 14.176V10.458H78.2179C78.7899 10.458 79.2839 10.3453 79.6999 10.12C80.1159 9.89467 80.4365 9.574 80.6619 9.158C80.9046 8.742 81.0259 8.25667 81.0259 7.702C81.0259 7.13 80.9046 6.636 80.6619 6.22C80.4365 5.804 80.1159 5.48333 79.6999 5.258C79.2839 5.03267 78.7899 4.92 78.2179 4.92H73.6679V0.863998H77.9319C79.5786 0.863998 80.9999 1.11533 82.1959 1.618C83.3919 2.10333 84.3105 2.83133 84.9519 3.802C85.5932 4.75533 85.9139 5.94267 85.9139 7.364V7.78C85.9139 9.20133 85.5845 10.3887 84.9259 11.342C84.2846 12.278 83.3659 12.9887 82.1699 13.474C80.9912 13.942 79.5786 14.176 77.9319 14.176H73.6679ZM108.892 20V1.02H111.44V20H108.892ZM96.048 20V1.02H98.596V20H96.048ZM98.076 11.706V9.418H109.412V11.706H98.076ZM114.916 20L121.754 1.02H126.07L133.116 20H130.49L124.12 2.684L125.368 3.308H122.3L123.626 2.684L117.464 20H114.916ZM118.998 14.332L119.856 12.044H128.046L128.904 14.332H118.998ZM141.433 20.468C140.202 20.468 139.084 20.208 138.079 19.688C137.073 19.168 136.276 18.3967 135.687 17.374C135.115 16.3513 134.829 15.0773 134.829 13.552V12.902H137.377V14.02C137.377 15.32 137.758 16.334 138.521 17.062C139.283 17.7727 140.254 18.128 141.433 18.128C142.611 18.128 143.582 17.7727 144.345 17.062C145.107 16.334 145.489 15.32 145.489 14.02V2.788H148.037V13.552C148.037 15.0773 147.742 16.3513 147.153 17.374C146.581 18.3967 145.792 19.168 144.787 19.688C143.799 20.208 142.681 20.468 141.433 20.468ZM137.325 3.308V1.02H148.037V3.308H137.325ZM171.104 20L163.382 11.134H160.6L169.414 1.02H172.326L164.318 10.172L164.084 8.378L174.276 20H171.104ZM159.144 20V1.02H161.692V20H159.144ZM189.609 20V1.02H192.157V20H189.609ZM176.765 20V1.02H179.313V20H176.765ZM178.793 11.706V9.418H190.129V11.706H178.793ZM195.633 20L202.471 1.02H206.787L213.833 20H211.207L204.837 2.684L206.085 3.308H203.017L204.343 2.684L198.181 20H195.633ZM199.715 14.332L200.573 12.044H208.763L209.621 14.332H199.715ZM217.314 20V1.02H220.694L226.31 13.682H226.726L232.316 1.02H235.722V20H233.174V3.802L233.356 3.854L227.974 16.074H224.854L219.446 3.854L219.654 3.802V20H217.314ZM241.284 20V1.02H243.832V20H241.284ZM255.569 20.468C253.992 20.468 252.649 20.208 251.539 19.688C250.43 19.168 249.581 18.4487 248.991 17.53C248.402 16.6113 248.107 15.5713 248.107 14.41H250.655C250.655 14.982 250.803 15.554 251.097 16.126C251.409 16.698 251.921 17.1747 252.631 17.556C253.359 17.9373 254.339 18.128 255.569 18.128C256.713 18.128 257.649 17.9633 258.377 17.634C259.105 17.2873 259.643 16.8453 259.989 16.308C260.336 15.7533 260.509 15.1553 260.509 14.514C260.509 13.734 260.171 13.0927 259.495 12.59C258.819 12.07 257.831 11.7493 256.531 11.628L254.425 11.446C252.744 11.3073 251.401 10.7873 250.395 9.886C249.39 8.98467 248.887 7.79733 248.887 6.324C248.887 5.16267 249.165 4.14867 249.719 3.282C250.291 2.41533 251.08 1.73933 252.085 1.254C253.091 0.751332 254.261 0.499998 255.595 0.499998C256.913 0.499998 258.074 0.742665 259.079 1.228C260.085 1.71333 260.865 2.398 261.419 3.282C261.991 4.14867 262.277 5.18867 262.277 6.402H259.729C259.729 5.79533 259.582 5.22333 259.287 4.686C259.01 4.14867 258.568 3.70667 257.961 3.36C257.355 3.01333 256.566 2.84 255.595 2.84C254.659 2.84 253.879 3.00467 253.255 3.334C252.649 3.66333 252.189 4.09667 251.877 4.634C251.583 5.154 251.435 5.71733 251.435 6.324C251.435 7.01733 251.704 7.63267 252.241 8.17C252.779 8.70733 253.576 9.01933 254.633 9.106L256.739 9.288C258.039 9.392 259.157 9.66933 260.093 10.12C261.047 10.5533 261.775 11.1427 262.277 11.888C262.797 12.616 263.057 13.4913 263.057 14.514C263.057 15.6753 262.745 16.7067 262.121 17.608C261.497 18.5093 260.622 19.2113 259.495 19.714C258.369 20.2167 257.06 20.468 255.569 20.468Z" fill="white"/>
</svg>
